<mxfile host="app.diagrams.net" modified="2022-09-13T03:17:31.371Z" agent="5.0 (Windows NT 10.0; Win64; x64) AppleWebKit/537.36 (KHTML, like Gecko) Chrome/105.0.0.0 Safari/537.36" etag="2dSvOTxUhg4H4YKZKB2U" version="20.3.0" type="github">
  <diagram id="mcWvsBhBYjvY7HLqfO6d" name="Página-1">
    <mxGraphModel dx="1038" dy="571" grid="1" gridSize="10" guides="1" tooltips="1" connect="1" arrows="1" fold="1" page="1" pageScale="1" pageWidth="827" pageHeight="1169" math="0" shadow="0">
      <root>
        <mxCell id="0" />
        <mxCell id="1" parent="0" />
        <mxCell id="uPOUoaiR1Hsd6S78-Up4-1" value="&lt;b&gt;HUMAN ACTION RECOGNITION&lt;/b&gt;" style="text;html=1;strokeColor=none;fillColor=none;align=center;verticalAlign=middle;whiteSpace=wrap;rounded=0;" vertex="1" parent="1">
          <mxGeometry y="20" width="240" height="30" as="geometry" />
        </mxCell>
        <mxCell id="uPOUoaiR1Hsd6S78-Up4-2" value="Metodología de desarrollo" style="text;html=1;strokeColor=none;fillColor=none;align=center;verticalAlign=middle;whiteSpace=wrap;rounded=0;" vertex="1" parent="1">
          <mxGeometry x="40" y="40" width="160" height="30" as="geometry" />
        </mxCell>
        <mxCell id="uPOUoaiR1Hsd6S78-Up4-4" value="SISTEMA DE VISIÓN POR COMPUTADORA" style="text;html=1;strokeColor=none;fillColor=none;align=center;verticalAlign=middle;whiteSpace=wrap;rounded=0;" vertex="1" parent="1">
          <mxGeometry x="850" y="30" width="240" height="30" as="geometry" />
        </mxCell>
        <mxCell id="uPOUoaiR1Hsd6S78-Up4-5" value="Desarrolado por: German Gutierrez Machicado" style="text;html=1;strokeColor=none;fillColor=none;align=center;verticalAlign=middle;whiteSpace=wrap;rounded=0;" vertex="1" parent="1">
          <mxGeometry x="40" y="80" width="160" height="30" as="geometry" />
        </mxCell>
        <mxCell id="uPOUoaiR1Hsd6S78-Up4-6" value="VIDEO ACTION RECOGNITION&lt;br&gt;(Reconocimiento de acción en video)" style="text;html=1;strokeColor=none;fillColor=none;align=center;verticalAlign=middle;whiteSpace=wrap;rounded=0;" vertex="1" parent="1">
          <mxGeometry x="850" y="170" width="240" height="30" as="geometry" />
        </mxCell>
        <mxCell id="uPOUoaiR1Hsd6S78-Up4-7" value="AR&lt;br&gt;(Action Recognition)" style="text;html=1;strokeColor=none;fillColor=none;align=center;verticalAlign=middle;whiteSpace=wrap;rounded=0;" vertex="1" parent="1">
          <mxGeometry x="1120" y="100" width="150" height="30" as="geometry" />
        </mxCell>
        <mxCell id="uPOUoaiR1Hsd6S78-Up4-8" value="TAD&lt;br&gt;(Temporal Action Detection)" style="text;html=1;strokeColor=none;fillColor=none;align=center;verticalAlign=middle;whiteSpace=wrap;rounded=0;" vertex="1" parent="1">
          <mxGeometry x="1110" y="150" width="180" height="30" as="geometry" />
        </mxCell>
        <mxCell id="uPOUoaiR1Hsd6S78-Up4-9" value="SAD&lt;br&gt;(Spatio-temporal Action Detection)" style="text;html=1;strokeColor=none;fillColor=none;align=center;verticalAlign=middle;whiteSpace=wrap;rounded=0;" vertex="1" parent="1">
          <mxGeometry x="1110" y="210" width="190" height="30" as="geometry" />
        </mxCell>
        <mxCell id="uPOUoaiR1Hsd6S78-Up4-10" value="ASAD&lt;br&gt;(Actor-identified Spatio-temporal Action Detection" style="text;html=1;strokeColor=none;fillColor=none;align=center;verticalAlign=middle;whiteSpace=wrap;rounded=0;" vertex="1" parent="1">
          <mxGeometry x="1130" y="270" width="180" height="30" as="geometry" />
        </mxCell>
        <mxCell id="uPOUoaiR1Hsd6S78-Up4-20" style="rounded=0;orthogonalLoop=1;jettySize=auto;html=1;exitX=1;exitY=0.5;exitDx=0;exitDy=0;" edge="1" parent="1" source="uPOUoaiR1Hsd6S78-Up4-11" target="uPOUoaiR1Hsd6S78-Up4-14">
          <mxGeometry relative="1" as="geometry" />
        </mxCell>
        <mxCell id="uPOUoaiR1Hsd6S78-Up4-21" style="edgeStyle=none;rounded=0;orthogonalLoop=1;jettySize=auto;html=1;exitX=1;exitY=0.5;exitDx=0;exitDy=0;" edge="1" parent="1" source="uPOUoaiR1Hsd6S78-Up4-11" target="uPOUoaiR1Hsd6S78-Up4-15">
          <mxGeometry relative="1" as="geometry" />
        </mxCell>
        <mxCell id="uPOUoaiR1Hsd6S78-Up4-11" value="&lt;h1&gt;Metodología para reconocimiento de imágenes&lt;/h1&gt;&lt;p&gt;Reconocimiento de objetos en una imagen. Un objeto en una imagen, múltiples objetos en una imagen&lt;/p&gt;" style="text;html=1;strokeColor=none;fillColor=none;spacing=5;spacingTop=-20;whiteSpace=wrap;overflow=hidden;rounded=0;" vertex="1" parent="1">
          <mxGeometry x="50" y="160" width="360" height="120" as="geometry" />
        </mxCell>
        <mxCell id="uPOUoaiR1Hsd6S78-Up4-22" style="edgeStyle=none;rounded=0;orthogonalLoop=1;jettySize=auto;html=1;exitX=1;exitY=0.5;exitDx=0;exitDy=0;entryX=0;entryY=0.75;entryDx=0;entryDy=0;" edge="1" parent="1" source="uPOUoaiR1Hsd6S78-Up4-12" target="uPOUoaiR1Hsd6S78-Up4-17">
          <mxGeometry relative="1" as="geometry" />
        </mxCell>
        <mxCell id="uPOUoaiR1Hsd6S78-Up4-24" style="edgeStyle=none;rounded=0;orthogonalLoop=1;jettySize=auto;html=1;exitX=1;exitY=0.5;exitDx=0;exitDy=0;" edge="1" parent="1" source="uPOUoaiR1Hsd6S78-Up4-12" target="uPOUoaiR1Hsd6S78-Up4-23">
          <mxGeometry relative="1" as="geometry" />
        </mxCell>
        <mxCell id="uPOUoaiR1Hsd6S78-Up4-12" value="&lt;h1&gt;Metodología para la estimación de postura humana&lt;/h1&gt;&lt;p&gt;Reconocimiento de postura humana en una imagen. Una persona en una imagen, múltiples personas en una imagen&lt;/p&gt;" style="text;html=1;strokeColor=none;fillColor=none;spacing=5;spacingTop=-20;whiteSpace=wrap;overflow=hidden;rounded=0;" vertex="1" parent="1">
          <mxGeometry x="60" y="310" width="400" height="120" as="geometry" />
        </mxCell>
        <mxCell id="uPOUoaiR1Hsd6S78-Up4-25" style="edgeStyle=none;rounded=0;orthogonalLoop=1;jettySize=auto;html=1;exitX=1;exitY=0.5;exitDx=0;exitDy=0;entryX=0;entryY=0.5;entryDx=0;entryDy=0;" edge="1" parent="1" source="uPOUoaiR1Hsd6S78-Up4-13" target="uPOUoaiR1Hsd6S78-Up4-19">
          <mxGeometry relative="1" as="geometry" />
        </mxCell>
        <mxCell id="uPOUoaiR1Hsd6S78-Up4-26" style="edgeStyle=none;rounded=0;orthogonalLoop=1;jettySize=auto;html=1;exitX=1;exitY=0.5;exitDx=0;exitDy=0;entryX=0;entryY=0.5;entryDx=0;entryDy=0;" edge="1" parent="1" source="uPOUoaiR1Hsd6S78-Up4-13" target="uPOUoaiR1Hsd6S78-Up4-18">
          <mxGeometry relative="1" as="geometry" />
        </mxCell>
        <mxCell id="uPOUoaiR1Hsd6S78-Up4-13" value="&lt;h1&gt;Metodología para el reconocimiento de acción humana&lt;/h1&gt;&lt;p&gt;Reconocimiento de acción humana en una imagen. Una sola acción en una imagen, múltiples acciones en una imagen&lt;/p&gt;" style="text;html=1;strokeColor=none;fillColor=none;spacing=5;spacingTop=-20;whiteSpace=wrap;overflow=hidden;rounded=0;" vertex="1" parent="1">
          <mxGeometry x="70" y="460" width="410" height="120" as="geometry" />
        </mxCell>
        <mxCell id="uPOUoaiR1Hsd6S78-Up4-14" value="En una imagen" style="text;html=1;strokeColor=none;fillColor=none;align=center;verticalAlign=middle;whiteSpace=wrap;rounded=0;" vertex="1" parent="1">
          <mxGeometry x="490" y="160" width="130" height="30" as="geometry" />
        </mxCell>
        <mxCell id="uPOUoaiR1Hsd6S78-Up4-15" value="En un video" style="text;html=1;strokeColor=none;fillColor=none;align=center;verticalAlign=middle;whiteSpace=wrap;rounded=0;" vertex="1" parent="1">
          <mxGeometry x="490" y="220" width="130" height="30" as="geometry" />
        </mxCell>
        <mxCell id="uPOUoaiR1Hsd6S78-Up4-17" value="En una imagen" style="text;html=1;strokeColor=none;fillColor=none;align=center;verticalAlign=middle;whiteSpace=wrap;rounded=0;" vertex="1" parent="1">
          <mxGeometry x="530" y="300" width="130" height="30" as="geometry" />
        </mxCell>
        <mxCell id="uPOUoaiR1Hsd6S78-Up4-18" value="En un video" style="text;html=1;strokeColor=none;fillColor=none;align=center;verticalAlign=middle;whiteSpace=wrap;rounded=0;" vertex="1" parent="1">
          <mxGeometry x="540" y="520" width="130" height="30" as="geometry" />
        </mxCell>
        <mxCell id="uPOUoaiR1Hsd6S78-Up4-19" value="En una imagen" style="text;html=1;strokeColor=none;fillColor=none;align=center;verticalAlign=middle;whiteSpace=wrap;rounded=0;" vertex="1" parent="1">
          <mxGeometry x="530" y="440" width="130" height="30" as="geometry" />
        </mxCell>
        <mxCell id="uPOUoaiR1Hsd6S78-Up4-23" value="En un video" style="text;html=1;strokeColor=none;fillColor=none;align=center;verticalAlign=middle;whiteSpace=wrap;rounded=0;" vertex="1" parent="1">
          <mxGeometry x="540" y="370" width="130" height="30" as="geometry" />
        </mxCell>
      </root>
    </mxGraphModel>
  </diagram>
</mxfile>
